<svg width="24" height="24" viewBox="0 0 24 24" fill="none" xmlns="http://www.w3.org/2000/svg">
<path d="M3.09998 5.99998C3.09998 4.39835 4.39835 3.09998 5.99998 3.09998H10.7573C11.7916 3.09998 12.7836 3.51087 13.515 4.24226L20.2549 10.9822C21.778 12.5052 21.778 14.9746 20.2549 16.4976L16.4976 20.255C14.9745 21.778 12.5052 21.778 10.9822 20.255L4.24226 13.5151C3.51087 12.7837 3.09998 11.7917 3.09998 10.7573V5.99998ZM5.99998 4.89998C5.39246 4.89998 4.89998 5.39246 4.89998 5.99998V10.7573C4.89998 11.3143 5.12123 11.8484 5.51505 12.2423L12.255 18.9822C13.0751 19.8023 14.4047 19.8023 15.2248 18.9822L18.9821 15.2248C19.8022 14.4047 19.8022 13.0751 18.9821 12.255L12.2422 5.51505C11.8484 5.12122 11.3142 4.89998 10.7573 4.89998H5.99998Z" fill="#6A6F73"/>
<path d="M10.8416 9.09164C10.8416 10.0581 10.0581 10.8416 9.09164 10.8416C8.12515 10.8416 7.34164 10.0581 7.34164 9.09164C7.34164 8.12515 8.12515 7.34164 9.09164 7.34164C10.0581 7.34164 10.8416 8.12515 10.8416 9.09164Z" fill="#6A6F73"/>
</svg>
